<?xml version="1.0" encoding="UTF-8" standalone="no"?>
<!-- Created with Inkscape (http://www.inkscape.org/) -->

<svg
   xmlns:dc="http://purl.org/dc/elements/1.1/"
   xmlns:cc="http://creativecommons.org/ns#"
   xmlns:rdf="http://www.w3.org/1999/02/22-rdf-syntax-ns#"
   xmlns:svg="http://www.w3.org/2000/svg"
   xmlns="http://www.w3.org/2000/svg"
   xmlns:sodipodi="http://sodipodi.sourceforge.net/DTD/sodipodi-0.dtd"
   xmlns:inkscape="http://www.inkscape.org/namespaces/inkscape"
   width="180mm"
   height="180mm"
   viewBox="0 0 637.79528 637.79527"
   id="svg2"
   version="1.1"
   inkscape:version="0.91 r13725"
   sodipodi:docname="sentry.svg">
  <defs
     id="defs4" />
  <sodipodi:namedview
     id="base"
     pagecolor="#ffffff"
     bordercolor="#666666"
     borderopacity="1.0"
     inkscape:pageopacity="0.0"
     inkscape:pageshadow="2"
     inkscape:zoom="0.98994949"
     inkscape:cx="100.06734"
     inkscape:cy="231.68233"
     inkscape:document-units="px"
     inkscape:current-layer="layer1"
     showgrid="false"
     inkscape:window-width="1920"
     inkscape:window-height="1057"
     inkscape:window-x="-8"
     inkscape:window-y="-8"
     inkscape:window-maximized="1" />
  <metadata
     id="metadata7">
    <rdf:RDF>
      <cc:Work
         rdf:about="">
        <dc:format>image/svg+xml</dc:format>
        <dc:type
           rdf:resource="http://purl.org/dc/dcmitype/StillImage" />
        <dc:title></dc:title>
      </cc:Work>
    </rdf:RDF>
  </metadata>
  <g
     inkscape:label="Layer 1"
     inkscape:groupmode="layer"
     id="layer1"
     transform="translate(0,-414.56693)">
    <path
       style="fill:#000000;fill-opacity:1;fill-rule:evenodd;stroke:#000000;stroke-width:1px;stroke-linecap:butt;stroke-linejoin:miter;stroke-opacity:1"
       d="M 106.78646,651.82803 C 103.77981,573.24108 211.495,504.60872 290.12914,503.33561 c 82.78897,-1.34038 200.07702,67.23414 197.9899,150.00765 -2.3426,92.90566 -5.32038,195.0292 -50.51379,277.46019 -14.38001,26.22858 -37.69328,50.76234 -65.78862,61.02758 -50.77554,18.55197 -112.31792,13.65757 -161.99461,-7.66281 -25.59877,-10.98652 -47.48904,-33.08819 -60.37021,-57.78791 -42.82623,-82.1195 -38.81968,-174.03536 -42.66535,-274.55228 z"
       id="path4355"
       inkscape:connector-curvature="0"
       sodipodi:nodetypes="sasaaaas" />
    <path
       style="fill:#ffffff;fill-opacity:1;fill-rule:evenodd;stroke:#000000;stroke-width:10;stroke-linecap:butt;stroke-linejoin:miter;stroke-miterlimit:4;stroke-dasharray:none;stroke-opacity:1"
       d="m 151.73824,678.59707 c -12.3275,-62.39903 80.34286,-125.64941 143.94674,-125.25891 64.7469,0.39751 158.20423,65.92109 144.95689,129.29953 -5.54706,26.53848 -54.46295,27.34647 -77.30208,25.29695 -45.75479,-4.10589 -79.55933,-6.64028 -126.49241,-0.56583 -29.69923,3.84391 -79.30503,0.60737 -85.10914,-28.77174 z"
       id="path4349"
       inkscape:connector-curvature="0"
       sodipodi:nodetypes="aaassa" />
    <ellipse
       style="fill:#000000;fill-opacity:1;stroke:#000000;stroke-width:10;stroke-linecap:round;stroke-linejoin:miter;stroke-miterlimit:4;stroke-dasharray:none;stroke-opacity:1"
       id="path4351"
       cx="212.19638"
       cy="656.56201"
       rx="23.486046"
       ry="21.718279" />
    <ellipse
       style="fill:#000000;fill-opacity:1;stroke:#000000;stroke-width:10;stroke-linecap:round;stroke-linejoin:miter;stroke-miterlimit:4;stroke-dasharray:none;stroke-opacity:1"
       id="path4351-3"
       cx="377.4097"
       cy="657.53558"
       rx="23.486046"
       ry="21.718279" />
    <circle
       style="fill:#000000;fill-opacity:1;stroke:#000000;stroke-width:10;stroke-linecap:round;stroke-linejoin:miter;stroke-miterlimit:4;stroke-dasharray:none;stroke-opacity:1"
       id="path4372"
       cx="303.26688"
       cy="435.10696"
       r="10.714286" />
    <path
       style="fill:#000000;fill-opacity:1;fill-rule:evenodd;stroke:#000000;stroke-width:1px;stroke-linecap:butt;stroke-linejoin:miter;stroke-opacity:1"
       d="m 296.84371,447.18875 c 0,0 -1.9409,21.63998 -6.18718,31.441 -2.49364,5.75567 -17.18956,16.2029 -10.98541,15.27855 21.61879,-3.22098 25.27628,-3.09973 46.21448,0.37881 6.05518,1.00597 -10.7837,-6.93971 -13.63706,-12.37437 -5.31007,-10.11383 -4.54569,-33.96638 -4.54569,-33.96638 z"
       id="path4378"
       inkscape:connector-curvature="0"
       sodipodi:nodetypes="cassacc" />
    <path
       style="fill:#000000;fill-opacity:1;fill-rule:evenodd;stroke:#000000;stroke-width:1px;stroke-linecap:butt;stroke-linejoin:miter;stroke-opacity:1"
       d="m 94.51017,704.86974 c 1.21861,35.7003 2.91391,61.308 6.31346,107.58125 0.91582,12.46583 -35.607876,5.55584 -35.607876,5.55584 L 63.19545,918.51701 35.921331,918.01193 36.426407,815.98652 C 11.757449,794.69301 20.167073,700.25871 47.538088,693.00045 c 15.866014,-3.47163 42.094526,-17.32187 46.467012,-9.34391 0,0 0.21165,12.61707 0.50507,21.2132 z"
       id="path4382"
       inkscape:connector-curvature="0"
       sodipodi:nodetypes="sscccccss" />
    <ellipse
       style="fill:#000000;fill-opacity:1;stroke:#000000;stroke-width:27.00961876;stroke-linecap:round;stroke-linejoin:miter;stroke-miterlimit:4;stroke-dasharray:none;stroke-opacity:1"
       id="path4372-3"
       cx="51.538082"
       cy="934.17432"
       rx="27.463289"
       ry="30.493748" />
    <ellipse
       style="fill:#000000;fill-opacity:1;stroke:#000000;stroke-width:27.00961876;stroke-linecap:round;stroke-linejoin:miter;stroke-miterlimit:4;stroke-dasharray:none;stroke-opacity:1"
       id="path4372-3-2"
       cx="570.75647"
       cy="544.21484"
       rx="27.463289"
       ry="30.493748" />
    <ellipse
       style="fill:#000000;fill-opacity:1;stroke:#000000;stroke-width:17.35478973;stroke-linecap:round;stroke-linejoin:miter;stroke-miterlimit:4;stroke-dasharray:none;stroke-opacity:1"
       id="path4429"
       cx="296.5813"
       cy="1010.4409"
       rx="39.254089"
       ry="30.162716" />
    <ellipse
       style="fill:#ffffff;fill-opacity:1;stroke:#000000;stroke-width:10;stroke-linecap:round;stroke-linejoin:miter;stroke-miterlimit:4;stroke-dasharray:none;stroke-opacity:1"
       id="path4351-2"
       cx="375.87827"
       cy="785.70221"
       rx="23.486046"
       ry="21.718279" />
    <ellipse
       style="fill:#ffffff;fill-opacity:1;stroke:#000000;stroke-width:10;stroke-linecap:round;stroke-linejoin:miter;stroke-miterlimit:4;stroke-dasharray:none;stroke-opacity:1"
       id="path4351-2-0"
       cx="376.88843"
       cy="831.15912"
       rx="23.486046"
       ry="21.718279" />
    <ellipse
       style="fill:#ffffff;fill-opacity:1;stroke:#000000;stroke-width:10;stroke-linecap:round;stroke-linejoin:miter;stroke-miterlimit:4;stroke-dasharray:none;stroke-opacity:1"
       id="path4351-2-0-4"
       cx="377.89856"
       cy="876.61597"
       rx="23.486046"
       ry="21.718279" />
    <path
       style="fill:#000000;fill-opacity:1;fill-rule:evenodd;stroke:#000000;stroke-width:1px;stroke-linecap:butt;stroke-linejoin:miter;stroke-opacity:1"
       d="m 492.93664,786.6832 c 3.76179,-35.52246 5.64687,-61.11688 8.72043,-107.41293 0.82798,-12.47198 36.03453,-0.54607 36.03453,-0.54607 l 15.98898,-99.25087 26.9384,4.29597 -14.69934,100.96222 c 21.4654,24.51957 -0.005,116.86444 -28.11993,120.24278 -16.19476,1.22969 -44.09559,11.29482 -47.31521,2.78595 0,0 1.54637,-12.5237 2.45214,-21.07702 z"
       id="path4382-8"
       inkscape:connector-curvature="0"
       sodipodi:nodetypes="sscccccss" />
    <path
       style="fill:none;fill-rule:evenodd;stroke:#ffffff;stroke-width:7.11484146;stroke-linecap:butt;stroke-linejoin:miter;stroke-miterlimit:4;stroke-dasharray:none;stroke-opacity:1"
       d="m 245.0826,1000.5605 c 28.23047,4.1687 57.44223,6.9095 101.55947,2.5794"
       id="path4542"
       inkscape:connector-curvature="0"
       sodipodi:nodetypes="cc" />
  </g>
</svg>
